<svg id="Layer_1" data-name="Layer 1" xmlns="http://www.w3.org/2000/svg" xmlns:xlink="http://www.w3.org/1999/xlink" viewBox="0 0 500 500"><defs><style>.cls-1{stroke:#fff;stroke-miterlimit:10;stroke-width:2px;fill:url(#linear-gradient);}.cls-2{fill:#3e3e3c;}.cls-3{fill:#fff;}.cls-4{opacity:0.3;}</style><linearGradient id="linear-gradient" x1="95" y1="250" x2="405" y2="250" gradientUnits="userSpaceOnUse"><stop offset="0" stop-color="#fff" stop-opacity="0.2"/><stop offset="1" stop-color="#fff" stop-opacity="0.2"/></linearGradient></defs><title>people</title><rect class="cls-1" x="95" y="95" width="310" height="310"/><rect class="cls-2" x="284.91" y="220.68" width="35.81" height="154.93" transform="translate(-122.13 301.45) rotate(-45)"/><circle cx="249.48" cy="244.82" r="94.86"/><circle class="cls-3" cx="249.48" cy="225.57" r="22.21"/><path class="cls-3" d="M277.07,262.69a39,39,0,0,0-66.61,27.59h78A38.87,38.87,0,0,0,277.07,262.69Z"/><g class="cls-4"><circle class="cls-3" cx="207.45" cy="242.1" r="16.53"/><circle class="cls-3" cx="288.5" cy="242.1" r="16.53"/><path class="cls-3" d="M309,269.74A29,29,0,0,0,281.88,262a42.71,42.71,0,0,1,10.62,28.29h25.05A28.91,28.91,0,0,0,309,269.74Z"/><path class="cls-3" d="M186.91,269.74a28.91,28.91,0,0,0-8.51,20.54h28.06a42.71,42.71,0,0,1,10-27.61A29,29,0,0,0,186.91,269.74Z"/></g></svg>