<svg id="Layer_1" data-name="Layer 1" xmlns="http://www.w3.org/2000/svg" xmlns:xlink="http://www.w3.org/1999/xlink" viewBox="0 0 500 500"><defs><style>.cls-1{stroke:#fff;stroke-miterlimit:10;stroke-width:2px;fill:url(#linear-gradient);}.cls-2{fill:#3e3e3c;}.cls-3{fill:#666fde;}.cls-4{fill:#fff;}</style><linearGradient id="linear-gradient" x1="95" y1="250" x2="405" y2="250" gradientUnits="userSpaceOnUse"><stop offset="0" stop-color="#fff" stop-opacity="0.2"/><stop offset="1" stop-color="#fff" stop-opacity="0.2"/></linearGradient></defs><title>tools</title><rect class="cls-1" x="95" y="95" width="310" height="310"/><rect x="143" y="195.95" width="214" height="132.98"/><rect class="cls-2" x="143" y="170.99" width="214" height="24.96"/><rect class="cls-3" x="161.5" y="262.44" width="16" height="49.99"/><rect class="cls-3" x="186.5" y="253.43" width="16" height="59"/><rect class="cls-3" x="211" y="234.45" width="16" height="77.99"/><polygon class="cls-4" points="372.24 324.43 327.88 280.06 328.19 279.75 322.63 259 301.87 253.43 298.11 257.2 312.54 271.63 304.87 279.29 290.44 264.86 286.68 268.63 292.24 289.38 313 294.94 313.31 294.63 357.67 338.99 360.87 350.93 372.81 354.13 373.16 354.48 373.37 354.27 376.79 355.19 388.44 343.54 387.52 340.12 387.73 339.92 387.37 339.56 384.17 327.62 372.24 324.43"/><circle class="cls-3" cx="156.91" cy="183.47" r="4.91"/><circle class="cls-3" cx="169.25" cy="183.47" r="4.91"/><circle class="cls-3" cx="181.59" cy="183.47" r="4.91"/></svg>